<svg id="Calque_1" data-name="Calque 1" xmlns="http://www.w3.org/2000/svg" viewBox="0 0 255.03 159.81"><title>logo-black</title><path d="M203.13,158.05a14.61,14.61,0,0,1-4.49.82c-3.26,0-6.12-1.84-6.12-7.45V134h12.73V120.31H192.52V107.05H176l0,13.26H145.36v42.8c0,8.67-2.79,8.84-4.67,8.84s-4-.76-4-8.84V143c0-16.72-8-23.86-21.21-23.86-8,0-15.3,2.44-22.44,6.73l6.12,11.42c5.3-2.85,9.18-4.28,12.85-4.28,4.49,0,6.73,1.63,7.14,5.3-12.75,1.33-20.66,4.3-24.62,9.14-0.41.1-3,4.11-6.75,7.24-4,3.33-5.15,2.53-6.31,1.86s-2.41-1.63-2.41-5.1V126.76H61.56v24c0,11.43,5.2,21.94,17,22.29,5.85,0.17,8.17-.25,12.14-2.46a39.64,39.64,0,0,0,4.66-2.92,14.78,14.78,0,0,0,11.35,4.84c5.51,0,10-2.45,14.08-6.12h0.07c1.39,18.49,15.29,20.56,21.45,20.56,16.71,0,21-14.45,20.56-24.67V134H175v17.75c0,12.44,5.51,20.81,18.77,20.81a38.3,38.3,0,0,0,12-1.84Zm-83.94-2.45c-1.84,2-3.47,3.47-6.33,3.47-3.06,0-4.69-1.33-4.69-3.67,0-2.86,2.65-5.51,11-6.73v6.93Z" transform="translate(-19.77 -27.17)" style="fill:#eb0000"/><path d="M154.13,96.44c-5.71,0-9.79,3.67-9.79,8.77s4.08,8.78,9.79,8.78,9.79-3.68,9.79-8.78S159.84,96.44,154.13,96.44Z" transform="translate(-19.77 -27.17)" style="fill:#eb0000"/><path d="M254.34,187c-6.48,0-21.45-2.47-21.48-23.77h0V134H221.6V120.31h26.55v0h0.45l0.11,42.79h0c0,8.08,2,8.84,4,8.84s4.67-.17,4.67-8.84h0.07l-0.92-62.79H274l0.69,62.17h0C275.24,172.7,271,187,254.34,187Z" transform="translate(-19.77 -27.17)" style="fill:#eb0000"/><path d="M240,96.06c-5.71,0-9.79,3.67-9.79,8.77s4.08,8.78,9.79,8.78,9.79-3.68,9.79-8.78S245.69,96.06,240,96.06Z" transform="translate(-19.77 -27.17)" style="fill:#eb0000"/><path d="M111.7,69.7a42.58,42.58,0,0,1-42.53,42.53H48.76v35.7H20.17V83.66h49a14,14,0,1,0,0-27.9h-49V27.17h49A42.58,42.58,0,0,1,111.7,69.7Z" transform="translate(-19.77 -27.17)" style="fill:#212121"/><ellipse cx="15.74" cy="144.4" rx="15.74" ry="14.91" style="fill:#212121"/></svg>